<svg width="32" height="32" fill="none" xmlns="http://www.w3.org/2000/svg"><path fill-rule="evenodd" clip-rule="evenodd" d="M180.058 11.873c-92.883 0-168.186 75.356-168.186 168.322H.002C.001 80.68 80.611 0 180.057 0v11.873Z" fill="#E5D6FF"/><path fill-rule="evenodd" clip-rule="evenodd" d="M176.061 312.064c77.813 0 140.896-63.131 140.896-141.01 0-77.88-63.083-141.01-140.896-141.01a2.968 2.968 0 0 1 0-5.936c81.095 0 146.832 65.792 146.832 146.946S257.156 318 176.061 318 29.229 252.208 29.229 171.054a2.968 2.968 0 1 1 5.936 0c0 77.879 63.083 141.01 140.896 141.01Z" fill="#B5D9FC"/><path d="M93.186 233.759h8.08c1.333 0 2.536.174 3.608.522 1.098.349 2.026.858 2.785 1.528a6.32 6.32 0 0 1 1.804 2.411c.444.938.667 2.023.667 3.255 0 1.367-.236 2.559-.706 3.577a6.988 6.988 0 0 1-1.961 2.492c-.837.643-1.831 1.125-2.981 1.447-1.124.322-2.353.482-3.687.482h-3.412v9.606h-4.197v-25.32Zm4.197 12.298h2.236c.889 0 1.699-.067 2.431-.201.759-.134 1.412-.362 1.961-.683a3.771 3.771 0 0 0 1.295-1.367c.313-.589.47-1.339.47-2.25 0-.804-.144-1.487-.431-2.05a3.684 3.684 0 0 0-1.177-1.366 5.12 5.12 0 0 0-1.686-.764 8.032 8.032 0 0 0-2.001-.241h-3.098v8.922ZM113.901 259.079v-25.284h3.961v25.284h-3.961ZM123.401 241.797c1.203-.67 2.353-1.166 3.452-1.487 1.124-.348 2.366-.523 3.726-.523 1.045 0 2 .121 2.863.362.889.241 1.647.63 2.274 1.166.628.535 1.112 1.259 1.452 2.17.366.884.549 1.969.549 3.255v12.339h-3.256l-.431-2.05h-.118c-.732.858-1.582 1.487-2.549 1.889-.967.375-2.039.563-3.216.563-1.857 0-3.36-.509-4.51-1.528-1.125-1.018-1.687-2.371-1.687-4.059 0-1.045.209-1.942.628-2.693a5.35 5.35 0 0 1 1.765-1.929c.758-.509 1.66-.884 2.706-1.125 1.046-.268 2.196-.402 3.451-.402h3.138v-1.447c0-1.205-.314-2.036-.942-2.492-.627-.482-1.49-.723-2.588-.723-.68 0-1.451.121-2.314.362-.837.214-1.804.629-2.902 1.246l-1.491-2.894Zm10.276 8.681-2.471.04c-1.856.054-3.164.389-3.922 1.005-.758.616-1.137 1.34-1.137 2.17 0 .536.078.978.235 1.327.183.348.418.629.706.844.288.214.614.375.98.482.393.08.785.12 1.177.12.811 0 1.608-.201 2.392-.602a5.788 5.788 0 0 0 2.04-1.809v-3.577ZM187.535 249.393c0 1.581-.249 3.001-.746 4.26-.47 1.259-1.124 2.318-1.961 3.175a8.526 8.526 0 0 1-2.941 1.969c-1.124.456-2.34.684-3.648.684-1.307 0-2.523-.215-3.647-.643a8.721 8.721 0 0 1-2.902-1.849c-.811-.831-1.451-1.849-1.922-3.055-.445-1.205-.667-2.585-.667-4.139 0-1.608.236-3.028.706-4.26.497-1.233 1.164-2.278 2-3.135a8.077 8.077 0 0 1 2.942-1.929c1.124-.456 2.34-.684 3.647-.684 1.308 0 2.51.215 3.609.643a7.787 7.787 0 0 1 2.902 1.809c.837.804 1.477 1.809 1.922 3.014.47 1.206.706 2.586.706 4.14Zm-4.197.201c0-1.206-.144-2.224-.431-3.055-.288-.857-.667-1.554-1.138-2.09-.47-.535-1.006-.924-1.608-1.165a5.013 5.013 0 0 0-1.882-.362c-.628 0-1.242.107-1.844.322a4.011 4.011 0 0 0-1.608 1.085c-.47.509-.849 1.192-1.137 2.05-.262.857-.392 1.929-.392 3.215 0 1.179.144 2.197.431 3.054.288.858.667 1.568 1.138 2.13a4.64 4.64 0 0 0 1.608 1.206 5.216 5.216 0 0 0 1.882.362c.628 0 1.242-.107 1.843-.322a4.008 4.008 0 0 0 1.609-1.085c.47-.536.836-1.232 1.098-2.09.287-.884.431-1.969.431-3.255ZM191.532 259.079v-18.97h3.059l.588 3.657a6.436 6.436 0 0 1 2.158-2.813c.993-.777 2.196-1.166 3.608-1.166.627 0 1.163.054 1.608.161.47.107.889.255 1.255.442l-.745 3.457a5.274 5.274 0 0 0-1.098-.402 5.249 5.249 0 0 0-1.373-.161c-1.438 0-2.641.509-3.608 1.527-.968.992-1.452 2.505-1.452 4.542v9.726h-4ZM210.433 259.079h-4.039v-18.97h3.137l.549 2.532c.863-.884 1.791-1.581 2.785-2.09.994-.509 2.157-.764 3.491-.764 1.333 0 2.418.268 3.255.804.863.536 1.516 1.286 1.961 2.251.889-.965 1.869-1.715 2.941-2.251 1.098-.536 2.301-.804 3.609-.804 1.934 0 3.386.55 4.353 1.648.994 1.072 1.49 2.599 1.49 4.582v13.062h-4.039V246.66c0-1.152-.249-2.036-.746-2.653-.47-.616-1.255-.924-2.353-.924-1.673 0-3.216.764-4.628 2.291v13.705h-4.039V246.66c0-1.152-.249-2.036-.746-2.653-.47-.616-1.255-.924-2.353-.924-1.673 0-3.216.804-4.628 2.411v13.585ZM238.331 241.796c1.203-.67 2.353-1.165 3.451-1.487 1.125-.348 2.367-.522 3.726-.522 1.046 0 2.001.12 2.863.361.889.241 1.648.63 2.275 1.166.628.536 1.111 1.259 1.451 2.17.366.884.549 1.969.549 3.256v12.338h-3.255l-.431-2.05h-.118c-.732.858-1.582 1.487-2.549 1.889-.968.375-2.04.563-3.216.563-1.857 0-3.36-.509-4.511-1.527-1.124-1.018-1.686-2.371-1.686-4.059 0-1.045.209-1.943.627-2.693a5.367 5.367 0 0 1 1.765-1.929c.759-.509 1.661-.885 2.706-1.126 1.046-.268 2.197-.402 3.452-.402h3.137v-1.447c0-1.205-.313-2.036-.941-2.491-.627-.483-1.49-.724-2.588-.724-.68 0-1.451.121-2.314.362-.837.214-1.804.63-2.903 1.246l-1.49-2.894Zm10.276 8.681-2.471.04c-1.857.054-3.164.389-3.922 1.005-.758.617-1.138 1.34-1.138 2.171 0 .535.079.978.236 1.326.183.348.418.629.706.844.287.214.614.375.98.482.392.081.785.121 1.177.121.81 0 1.608-.201 2.392-.603a5.788 5.788 0 0 0 2.04-1.809v-3.577ZM164.444 233.758c.811 0 1.635.107 2.471.32.837.189 1.582.438 2.236.746l-.824 2.486c-.497-.189-.98-.343-1.451-.462a5.64 5.64 0 0 0-1.451-.177c-1.151 0-1.987.296-2.51.888-.497.568-.745 1.562-.745 2.983v1.504h5.334v3.042h-5.334v14.065h-4.001v-14.065h-2.745v-3.042h2.745v-2.498c0-1.847.549-3.268 1.647-4.263 1.099-1.018 2.641-1.527 4.628-1.527ZM152.658 245.084h-5.256v8.447c0 .937.21 1.567.628 1.888.444.322 1.033.483 1.765.483.523 0 1.072-.054 1.647-.161a12.875 12.875 0 0 0 1.569-.442l.627 3.054c-.522.215-1.202.416-2.039.603-.811.161-1.673.241-2.588.241-1.988 0-3.426-.415-4.315-1.246-.863-.857-1.294-2.116-1.294-3.777v-9.09h-2.824v-3.055h2.824v-5.745h4v5.745h5.256v3.055Z" fill="#000"/><path d="M127.37 84.21h-8.124a.064.064 0 0 0-.064.065v52.523c0 .035.028.064.064.064h8.124a.064.064 0 0 0 .064-.064V84.275a.064.064 0 0 0-.064-.064ZM160.55 84.225v44.383c0 .009.002.018.005.026a.07.07 0 0 0 .016.022c.007.006.015.01.023.013a.063.063 0 0 0 .027.003h8.117a.064.064 0 0 0 .045-.019.064.064 0 0 0 .019-.045V84.225a.064.064 0 0 0-.064-.064h-8.117a.066.066 0 0 0-.027.002.065.065 0 0 0-.039.035.077.077 0 0 0-.005.027ZM210.079 97.524h-8.124a.064.064 0 0 0-.064.064v39.21c0 .035.028.064.064.064h8.124a.064.064 0 0 0 .064-.064v-39.21a.064.064 0 0 0-.064-.064ZM218.294 178.201h-8.125a.064.064 0 0 0-.064.064v38.599c0 .036.029.064.064.064h8.125a.064.064 0 0 0 .064-.064v-38.599a.064.064 0 0 0-.064-.064ZM139.958 186.603h8.082c.017 0 .033.007.045.019a.064.064 0 0 1 .019.045v30.168a.075.075 0 0 1-.021.051.074.074 0 0 1-.051.02h-8.081a.065.065 0 0 1-.046-.018.063.063 0 0 1-.018-.045v-30.169c0-.019.007-.037.021-.05a.071.071 0 0 1 .05-.021ZM162.548 186.603h-8.125a.064.064 0 0 0-.064.064v20.893c0 .035.029.064.064.064h8.125a.064.064 0 0 0 .064-.064v-20.893a.064.064 0 0 0-.064-.064ZM168.895 186.603h8.117a.063.063 0 0 1 .064.064v30.168a.074.074 0 0 1-.02.051.074.074 0 0 1-.051.02h-8.11a.063.063 0 0 1-.064-.063v-30.169c0-.017.006-.034.018-.048a.073.073 0 0 1 .046-.023ZM119.245 194.673h8.117a.064.064 0 0 0 .045-.019.064.064 0 0 0 .019-.045v-21.574c0-.009.002-.018.006-.026a.057.057 0 0 1 .039-.035.057.057 0 0 1 .026-.003h4.457a.064.064 0 0 0 .045-.019.064.064 0 0 0 .019-.045v-8.104a.065.065 0 0 0-.016-.05.07.07 0 0 0-.022-.016.058.058 0 0 0-.026-.005h-4.457a.07.07 0 0 1-.05-.016.066.066 0 0 1-.015-.022.058.058 0 0 1-.006-.026v-8.921a5.91 5.91 0 0 1 4.642-5.897 5.741 5.741 0 0 1 4.706 1.191 5.733 5.733 0 0 1 2.11 4.366.063.063 0 0 0 .064.063h8.118a.045.045 0 0 0 .028-.003.06.06 0 0 0 .024-.015.078.078 0 0 0 .016-.024.07.07 0 0 0 .003-.029 13.974 13.974 0 0 0-9.277-13.069 14.036 14.036 0 0 0-5.6-.791c-7.457.469-13.079 7.026-13.079 14.485v8.644a.073.073 0 0 1-.071.064h-4.478a.058.058 0 0 0-.026.005.068.068 0 0 0-.036.039c-.002.009-.003.018-.002.027v8.104c0 .017.007.033.019.045a.064.064 0 0 0 .045.019h4.456a.07.07 0 0 1 .048.018.07.07 0 0 1 .024.046v21.574a.065.065 0 0 0 .005.031.078.078 0 0 0 .02.024c.008.006.018.01.029.012.01.001.021 0 .031-.003ZM218.46 84.162v28.267a.064.064 0 0 1-.019.045.064.064 0 0 1-.045.019h-3.44a.07.07 0 0 0-.071.064v8.104c0 .019.007.037.021.05a.067.067 0 0 0 .05.021h3.454a.063.063 0 0 1 .064.064v16.01a.07.07 0 0 0 .024.046.07.07 0 0 0 .047.018h8.118a.064.064 0 0 0 .045-.019.064.064 0 0 0 .019-.045v-16.003a.063.063 0 0 1 .064-.064h3.447a.075.075 0 0 0 .026-.005.06.06 0 0 0 .022-.016.06.06 0 0 0 .013-.023c.003-.009.004-.018.003-.027v-8.111a.063.063 0 0 0-.064-.064h-3.447a.063.063 0 0 1-.064-.064V84.162h-8.267ZM132.83 114.976v8.105a.045.045 0 0 0 .003.028.064.064 0 0 0 .015.025.075.075 0 0 0 .024.015.07.07 0 0 0 .029.003 19.411 19.411 0 0 0 13.475-5.801 19.35 19.35 0 0 0 5.551-13.563 19.35 19.35 0 0 0-5.551-13.563 19.412 19.412 0 0 0-13.475-5.8.065.065 0 0 0-.029.003.066.066 0 0 0-.024.015.06.06 0 0 0-.015.024.046.046 0 0 0-.003.029V92.6c0 .017.006.033.018.045a.066.066 0 0 0 .046.02 11.154 11.154 0 0 1 7.698 3.355 11.12 11.12 0 0 1 0 15.537 11.153 11.153 0 0 1-7.698 3.355.063.063 0 0 0-.064.064ZM177.183 117.503a19.325 19.325 0 0 0 5.602 13.628 19.39 19.39 0 0 0 13.589 5.739.067.067 0 0 0 .05-.021.067.067 0 0 0 .021-.05v-8.104a.062.062 0 0 0 .003-.033.062.062 0 0 0-.041-.05.09.09 0 0 0-.033-.003 11.153 11.153 0 0 1-7.881-3.259 11.119 11.119 0 0 1 0-15.737 11.153 11.153 0 0 1 7.881-3.259.064.064 0 0 0 .045-.019.064.064 0 0 0 .019-.045v-8.083a.068.068 0 0 0-.021-.05.07.07 0 0 0-.05-.021 19.393 19.393 0 0 0-13.585 5.741 19.33 19.33 0 0 0-5.599 13.626ZM185.371 197.561a19.322 19.322 0 0 0 5.615 13.646 19.382 19.382 0 0 0 13.619 5.721.074.074 0 0 0 .051-.02.074.074 0 0 0 .02-.051v-8.104a.063.063 0 0 0-.064-.064 11.15 11.15 0 0 1-7.698-3.356 11.116 11.116 0 0 1 0-15.537 11.153 11.153 0 0 1 7.698-3.355.063.063 0 0 0 .064-.064v-8.09a.074.074 0 0 0-.02-.051.074.074 0 0 0-.051-.02 19.377 19.377 0 0 0-13.611 5.714 19.319 19.319 0 0 0-5.623 13.631Z" fill="#005FBB"/><path d="M169.67 159.587a.059.059 0 0 0-.04.021.06.06 0 0 0-.017.042 11.12 11.12 0 0 1-3.264 7.869 11.153 11.153 0 0 1-7.881 3.259 11.153 11.153 0 0 1-7.881-3.259 11.12 11.12 0 0 1-3.264-7.869.064.064 0 0 0-.064-.063h-8.118a.074.074 0 0 0-.048.022.08.08 0 0 0-.023.049 19.358 19.358 0 0 0 5.81 13.454 19.415 19.415 0 0 0 13.584 5.542c5.081 0 9.958-1.99 13.585-5.542a19.358 19.358 0 0 0 5.81-13.454.07.07 0 0 0-.019-.048.066.066 0 0 0-.045-.023h-8.125ZM154.493 155.486h8.118a.064.064 0 0 0 .045-.019.064.064 0 0 0 .019-.045c0-2.951 1.174-5.782 3.264-7.869a11.157 11.157 0 0 1 15.762 0 11.121 11.121 0 0 1 3.266 7.893.072.072 0 0 0 .012.021.06.06 0 0 0 .043.019h8.118c.009.001.019 0 .028-.003a.065.065 0 0 0 .04-.04c.003-.009.004-.019.003-.028a19.36 19.36 0 0 0-5.81-13.455 19.415 19.415 0 0 0-13.584-5.542c-5.081 0-9.958 1.99-13.585 5.542a19.36 19.36 0 0 0-5.81 13.455.067.067 0 0 0 .003.028.065.065 0 0 0 .04.04.067.067 0 0 0 .028.003ZM251.418 70.643h-8.287a.066.066 0 0 0-.066.064V229.6c0 .035.03.064.066.064h8.287a.065.065 0 0 0 .065-.064V70.708a.065.065 0 0 0-.065-.065ZM102.706 70.643h-8.287c-.036 0-.066.026-.066.06v146.274c0 .033.03.059.066.059h8.287c.036 0 .065-.026.065-.059V70.702c0-.032-.029-.06-.065-.06ZM221.551 159.422h8.288a13.886 13.886 0 0 0-1.998-6.356 13.923 13.923 0 0 0-11.103-6.665 13.962 13.962 0 0 0-6.56 1.219v-4.258h-8.252v26.62h8.252v-9.495a5.801 5.801 0 0 1 4.414-5.72 5.726 5.726 0 0 1 4.493.818 5.734 5.734 0 0 1 2.466 3.837Z" fill="#005FBB"/></svg>